<?xml version="1.0" encoding="UTF-8"?>
<!-- Generator: https://ezgif.com/png-to-svg -->
<svg version="1.1" xmlns="http://www.w3.org/2000/svg" width="914" height="914">
<path d="M0 0 C73.59 0 147.18 0 223 0 C216.62 16.82 210.24 33.64 203.77 50.44 C202.51 53.71 201.24 56.99 199.98 60.26 C198.21 64.88 196.43 69.49 194.65 74.11 C190.39 85.18 186.13 96.24 181.88 107.31 C181.46 108.39 181.05 109.47 180.62 110.58 C174.36 126.85 168.12 143.12 161.89 159.4 C156.42 173.68 150.94 187.96 145.44 202.24 C138.1 221.32 130.78 240.4 123.5 259.5 C116.57 277.68 109.61 295.84 102.62 314 C102.21 315.08 101.79 316.17 101.36 317.29 C97.89 326.32 94.41 335.34 90.93 344.37 C83.65 363.28 76.39 382.19 69.19 401.12 C62.53 418.63 55.83 436.12 49.13 453.61 C41.42 473.74 33.71 493.87 26 514 C-46.27 514 -118.54 514 -193 514 C-191.12 507.74 -189.23 501.66 -186.92 495.57 C-186.48 494.42 -186.48 494.42 -186.04 493.23 C-185.09 490.72 -184.14 488.2 -183.19 485.69 C-182.51 483.9 -181.84 482.12 -181.17 480.33 C-179.12 474.89 -177.06 469.44 -175 464 C-174.39 462.39 -173.78 460.78 -173.17 459.16 C-170.87 453.09 -168.57 447.01 -166.27 440.94 C-161.99 429.64 -157.74 418.32 -153.5 407 C-148.41 393.4 -143.29 379.81 -138.14 366.23 C-133.18 353.14 -128.26 340.04 -123.35 326.93 C-119.42 316.44 -115.48 305.97 -111.5 295.5 C-107.12 283.97 -102.77 272.42 -98.44 260.88 C-98.14 260.08 -97.84 259.29 -97.53 258.47 C-94.19 249.55 -90.86 240.62 -87.55 231.68 C-81.55 215.44 -75.45 199.23 -69.34 183.03 C-66.75 176.16 -64.16 169.29 -61.57 162.43 C-61.28 161.67 -61 160.92 -60.7 160.14 C-55.6 146.6 -50.51 133.05 -45.44 119.5 C-34.1 89.24 -22.68 59.01 -11.19 28.81 C-10.85 27.93 -10.51 27.04 -10.17 26.13 C-9.21 23.61 -8.25 21.1 -7.29 18.58 C-7.02 17.86 -6.74 17.13 -6.46 16.39 C-4.36 10.9 -2.18 5.46 0 0 Z " fill="#3FB0AC" transform="translate(346,95)"/>
<path d="M0 0 C1.26 0 2.52 0 3.82 0 C4.52 -0 5.22 -0 5.95 -0 C8.33 -0.01 10.71 -0 13.09 0 C14.8 0 16.52 0 18.23 0 C22.96 -0 27.69 0 32.42 0.01 C37.51 0.01 42.6 0.01 47.69 0.01 C56.52 0.01 65.35 0.01 74.18 0.02 C86.94 0.03 99.71 0.03 112.47 0.03 C133.18 0.03 153.89 0.04 174.6 0.05 C194.72 0.06 214.84 0.07 234.96 0.07 C236.2 0.07 237.44 0.07 238.72 0.07 C244.94 0.07 251.15 0.07 257.37 0.07 C308.98 0.08 360.6 0.1 412.21 0.12 C411.74 1.73 411.26 3.34 410.78 4.95 C410.51 5.84 410.24 6.74 409.97 7.66 C409.19 10.22 408.32 12.73 407.37 15.23 C407.04 16.11 406.7 16.98 406.36 17.88 C406.01 18.8 405.66 19.72 405.29 20.67 C404.73 22.15 404.73 22.15 404.15 23.66 C402.93 26.88 401.7 30.1 400.46 33.31 C399.6 35.58 398.73 37.85 397.87 40.11 C395.32 46.78 392.77 53.45 390.21 60.12 C389.87 61.02 389.53 61.92 389.17 62.84 C384.54 74.94 379.88 87.03 375.21 99.12 C374.34 101.39 373.46 103.66 372.59 105.93 C368.78 115.8 364.97 125.68 361.15 135.56 C360.48 137.3 360.48 137.3 359.79 139.09 C358.97 141.22 358.14 143.35 357.32 145.48 C352.6 157.69 347.91 169.91 343.21 182.12 C206.26 182.12 69.31 182.12 -71.79 182.12 C-69.8 175.51 -67.75 169.14 -65.26 162.73 C-64.92 161.85 -64.58 160.96 -64.23 160.05 C-63.49 158.14 -62.75 156.23 -62.01 154.32 C-59.98 149.08 -57.97 143.84 -55.96 138.6 C-55.53 137.5 -55.11 136.41 -54.68 135.27 C-49.93 122.93 -45.26 110.56 -40.6 98.19 C-40.18 97.07 -39.76 95.96 -39.33 94.81 C-34.42 81.8 -29.53 68.78 -24.66 55.76 C-19.47 41.88 -14.24 28.01 -8.91 14.19 C-8.65 13.52 -8.39 12.84 -8.13 12.15 C-7.42 10.3 -6.7 8.45 -5.98 6.6 C-5.38 5.04 -5.38 5.04 -4.76 3.45 C-3.38 0.15 -3.38 0.15 0 0 Z " fill="#40B0AC" transform="translate(378.78519064188004,617.8758015036583)"/>
</svg>
