<svg xmlns="http://www.w3.org/2000/svg" aria-hidden="true" style="position:absolute;width:0;height:0;overflow:hidden">
	<defs>

<symbol id="icon-semi" viewBox="0 0 32 32">
<path d="M3.219 0.156c-0.156 0.15-0.156 0.156-0.156 1.419 0.006 0.944 0.025 1.294 0.087 1.375 0.125 0.169 0.381 0.237 0.856 0.237h0.431v4.719l-0.206 0.169c-0.419 0.331-0.419 0.344-0.419 2.944v2.35l-0.337 0.338c-0.256 0.256-0.362 0.419-0.438 0.669-0.212 0.706-0.075 1.125 0.369 1.125 0.288 0 0.469-0.2 0.469-0.512 0-0.319 0.144-0.588 0.394-0.738 0.175-0.113 0.319-0.125 1.281-0.125h1.075v3.063h-0.487c-0.612 0-1.331 0.175-1.862 0.462l-0.4 0.212v-0.387c0-0.306-0.025-0.419-0.125-0.525-0.175-0.188-0.512-0.188-0.688 0-0.112 0.125-0.125 0.219-0.125 0.95l-0.006 0.819-0.244 0.375c-0.138 0.206-0.313 0.531-0.381 0.719-0.275 0.719-0.306 1.056-0.306 3.194v2.044l-0.344 0.025c-0.394 0.031-0.719 0.25-0.919 0.613-0.106 0.194-0.119 0.331-0.1 1.188 0.025 1.094 0.075 1.269 0.531 1.694 0.313 0.3 0.531 0.406 1.019 0.494 0.225 0.038 0.556 0.094 0.731 0.131l0.331 0.063v0.65c0 0.813 0.125 1.2 0.519 1.581 0.469 0.462 0.7 0.512 2.325 0.512 1.25 0 1.444-0.012 1.731-0.125 0.613-0.231 1.113-0.925 1.113-1.531v-0.219h14.125v0.219c0 0.606 0.5 1.3 1.113 1.531 0.288 0.113 0.481 0.125 1.731 0.125 1.637 0 1.875-0.056 2.331-0.519 0.387-0.394 0.512-0.775 0.512-1.575 0-0.363 0.006-0.656 0.019-0.656s0.337-0.056 0.725-0.125c0.8-0.144 1.063-0.262 1.387-0.606 0.425-0.438 0.456-0.569 0.481-1.644 0.019-0.856 0.006-0.994-0.1-1.188-0.2-0.363-0.525-0.581-0.919-0.613l-0.344-0.025v-1.988c0-1.506-0.025-2.106-0.094-2.475-0.094-0.475-0.4-1.231-0.656-1.587-0.119-0.169-0.125-0.269-0.125-2.231 0-2.488-0.012-2.544-0.569-3.094l-0.369-0.363v-2.244c0-1.231-0.019-2.331-0.044-2.45-0.025-0.125-0.15-0.313-0.313-0.475l-0.269-0.275v-4.681h0.431c0.475 0 0.731-0.069 0.856-0.237 0.063-0.081 0.081-0.431 0.087-1.375 0-1.262 0-1.269-0.156-1.419-0.144-0.15-0.188-0.156-0.869-0.156-0.863 0-1.244 0.075-1.788 0.338-0.8 0.388-1.475 1.294-1.631 2.212-0.038 0.219-0.081 0.388-0.087 0.375-0.012-0.013-0.106-0.269-0.212-0.575-0.275-0.775-0.469-1.106-0.881-1.5-0.394-0.375-0.825-0.619-1.356-0.756-0.544-0.144-11.381-0.138-11.925 0-0.544 0.144-1.044 0.438-1.425 0.838s-0.569 0.731-0.831 1.5l-0.181 0.525-0.106-0.487c-0.219-0.956-0.819-1.75-1.612-2.131-0.544-0.263-0.925-0.338-1.788-0.338-0.681 0-0.725 0.006-0.869 0.156zM5.375 1.137c0.431 0.194 0.819 0.581 1.044 1.037l0.175 0.356 0.019 2.638 0.019 2.644h-1.256v-2.469c0-2.688 0-2.688-0.35-2.962-0.131-0.106-0.256-0.131-0.594-0.131h-0.431v-1.331l0.519 0.031c0.375 0.019 0.606 0.069 0.856 0.188zM11 1.469c0 0.675 0.15 1.094 0.519 1.456s0.787 0.513 1.438 0.513c0.613 0 0.794-0.106 0.794-0.469 0-0.356-0.181-0.469-0.744-0.469-0.806 0-1.069-0.269-1.069-1.094v-0.469h8.125v0.469c0 0.55-0.1 0.794-0.394 0.969-0.188 0.119-0.325 0.125-2.269 0.125-1.988 0-2.069 0.006-2.2 0.125-0.188 0.175-0.188 0.513 0 0.688 0.131 0.119 0.206 0.125 2.25 0.125 2.413 0 2.531-0.019 3.031-0.513 0.369-0.362 0.519-0.781 0.519-1.469v-0.537l0.394 0.031c0.219 0.019 0.525 0.094 0.681 0.162 0.344 0.15 0.788 0.544 0.944 0.837 0.056 0.112 0.356 0.906 0.663 1.769l0.55 1.563-4.113 0.019c-2.269 0.006-5.969 0.006-8.238 0l-4.112-0.019 0.55-1.563c0.306-0.862 0.6-1.65 0.656-1.75 0.344-0.613 1.025-1.019 1.731-1.025l0.294-0.006v0.531zM28 1.594v0.656h-0.431c-0.337 0-0.462 0.025-0.594 0.131-0.35 0.275-0.35 0.275-0.35 2.962v2.469h-1.256l0.019-2.644 0.019-2.638 0.175-0.356c0.394-0.8 1.075-1.225 2-1.231l0.419-0.006v0.656zM24.438 11.719v5.469h-0.744l-0.038-0.238c-0.188-1.113-0.7-1.925-1.569-2.512-0.269-0.175-0.669-0.375-0.919-0.45l-0.45-0.144h-9.438l-0.45 0.144c-1.231 0.381-2.156 1.419-2.438 2.712l-0.1 0.488h-0.731v-10.938h16.875v5.469zM6.625 10.969v2.219h-1.875v-2.175c0-1.2 0.019-2.2 0.044-2.219 0.019-0.025 0.444-0.044 0.938-0.044h0.894v2.219zM27.238 10.981l0.012 2.206h-1.875v-4.444l1.844 0.037 0.019 2.2zM27.756 14.219c0.1 0.056 0.244 0.188 0.306 0.3 0.113 0.188 0.125 0.325 0.125 1.806v1.613l-0.294-0.181c-0.494-0.306-1.225-0.512-1.906-0.556l-0.613-0.031v-3.044h1.094c0.869 0 1.137 0.019 1.288 0.094zM21.188 15.006c0.762 0.369 1.262 0.969 1.475 1.775 0.069 0.244 0.087 1.169 0.087 4.294v3.988h-13.506l0.019-4.144 0.019-4.137 0.225-0.469c0.363-0.744 1.050-1.319 1.794-1.494 0.125-0.031 2.281-0.056 4.825-0.050l4.594 0.012 0.469 0.225zM8.313 19.094v0.969h-1.8c-2.019 0-2.044 0.006-2.419 0.462l-0.188 0.238v2.35l0.188 0.238c0.375 0.456 0.4 0.462 2.419 0.462h1.8v1.25h-5.375v-2.019c0-2.225 0.031-2.494 0.381-3.188 0.369-0.731 1.225-1.413 2.056-1.644 0.181-0.050 0.756-0.081 1.612-0.081l1.325-0.006v0.969zM26.556 18.219c1.206 0.288 2.219 1.344 2.438 2.556 0.038 0.212 0.069 1.206 0.069 2.331v1.956h-5.375v-1.25h1.8c2.019 0 2.044-0.006 2.419-0.462l0.188-0.238v-2.35l-0.188-0.238c-0.375-0.456-0.4-0.462-2.419-0.462h-1.8v-1.938h1.238c0.875 0 1.344 0.031 1.631 0.094zM8.313 21.938v0.938l-1.731-0.012-1.737-0.019-0.019-0.837c-0.006-0.462 0-0.881 0.013-0.925 0.025-0.063 0.4-0.081 1.756-0.081h1.719v0.938zM27.156 21.938v0.906l-1.731 0.019-1.738 0.012v-1.875l1.738 0.012 1.731 0.019v0.906zM30.425 26.788c0.012 0.7 0.006 0.769-0.131 0.969-0.075 0.119-0.212 0.244-0.294 0.288-0.125 0.056-6.35 1.144-6.563 1.144-0.038 0-0.063-0.294-0.063-0.781 0-1.306-0.113-1.406-1.563-1.406s-1.563 0.1-1.563 1.406v0.781h-8.5v-0.781c0-1.306-0.113-1.406-1.563-1.406s-1.563 0.1-1.563 1.406c0 0.506-0.025 0.781-0.069 0.781-0.031 0-0.544-0.081-1.138-0.181-0.594-0.106-2.019-0.344-3.169-0.538-1.15-0.2-2.163-0.387-2.25-0.431-0.081-0.038-0.219-0.163-0.294-0.281-0.131-0.194-0.144-0.288-0.144-0.944 0-0.4 0.019-0.75 0.044-0.769 0.019-0.025 6.513-0.038 14.419-0.031l14.381 0.019 0.019 0.756zM10.813 28.563v0.625h-1.25v-1.25h1.25v0.625zM22.438 28.563v0.625h-1.25v-1.25h1.25v0.625zM6.063 29.719c0.912 0.156 1.719 0.294 1.8 0.313 0.3 0.069 0.094 0.731-0.294 0.938-0.275 0.137-2.675 0.137-2.95 0-0.319-0.169-0.431-0.431-0.431-1.019 0-0.444 0.013-0.512 0.112-0.512 0.056 0 0.85 0.125 1.763 0.281zM27.813 29.95c0 0.406-0.025 0.563-0.125 0.719-0.219 0.363-0.35 0.394-1.781 0.394s-1.563-0.031-1.781-0.394c-0.1-0.163-0.175-0.594-0.106-0.613 0.387-0.081 3.5-0.606 3.625-0.613l0.169-0.006v0.512z"></path>
<path d="M8.938 7.306c-0.119 0.063-0.3 0.219-0.406 0.344l-0.188 0.237v4.288l0.188 0.238c0.106 0.125 0.287 0.281 0.406 0.344 0.206 0.113 0.512 0.119 7.063 0.119s6.856-0.006 7.063-0.119c0.369-0.194 0.581-0.519 0.613-0.931 0.031-0.438-0.113-0.637-0.456-0.637-0.269 0-0.425 0.162-0.469 0.488l-0.031 0.231h-13.438v-3.75h13.438l0.031 0.731c0.025 0.575 0.056 0.762 0.137 0.863 0.156 0.175 0.506 0.169 0.675-0.019 0.125-0.125 0.131-0.194 0.113-0.994-0.019-0.844-0.019-0.856-0.206-1.088-0.106-0.125-0.288-0.281-0.406-0.344-0.206-0.112-0.512-0.119-7.063-0.119s-6.856 0.006-7.063 0.119z"></path>
<path d="M11.656 15.775c-0.406 0.131-0.613 0.256-0.912 0.581-0.525 0.563-0.525 0.55-0.525 3.581 0 2.656 0 2.656 0.15 2.981 0.181 0.413 0.694 0.894 1.1 1.056 0.3 0.113 0.512 0.119 4.531 0.119s4.231-0.006 4.531-0.119c0.406-0.163 0.919-0.644 1.1-1.056 0.15-0.325 0.15-0.325 0.15-2.981 0-2.475-0.006-2.675-0.119-2.969-0.163-0.406-0.644-0.919-1.056-1.1-0.325-0.15-0.337-0.15-3.106-0.169-2.744-0.019-2.787-0.012-2.925 0.113-0.188 0.175-0.188 0.513 0 0.687 0.131 0.119 0.206 0.125 2.8 0.125 2.981 0 2.894-0.012 3.281 0.462l0.188 0.238v5.162l-0.188 0.238c-0.4 0.488-0.131 0.462-4.656 0.462s-4.256 0.025-4.656-0.462l-0.188-0.238-0.019-2.506c-0.019-2.825-0.031-2.744 0.45-3.137 0.213-0.169 0.287-0.188 0.756-0.206 0.613-0.031 0.781-0.131 0.781-0.481 0-0.356-0.181-0.469-0.744-0.463-0.262 0-0.588 0.037-0.725 0.081z"></path>
<path d="M12.219 17.719c-0.088 0.081-0.156 0.225-0.156 0.313s0.069 0.231 0.156 0.313l0.15 0.156h7.325l0.15-0.156c0.087-0.081 0.156-0.225 0.156-0.313s-0.069-0.231-0.156-0.313l-0.15-0.156h-7.325l-0.15 0.156z"></path>
<path d="M12.219 19.594c-0.088 0.081-0.156 0.225-0.156 0.313s0.069 0.231 0.156 0.313l0.15 0.156h7.325l0.15-0.156c0.087-0.081 0.156-0.225 0.156-0.313s-0.069-0.231-0.156-0.313l-0.15-0.156h-7.325l-0.15 0.156z"></path>
<path d="M12.219 21.469c-0.088 0.081-0.156 0.225-0.156 0.313s0.069 0.231 0.156 0.313l0.15 0.156h7.325l0.15-0.156c0.087-0.081 0.156-0.225 0.156-0.313s-0.069-0.231-0.156-0.313l-0.15-0.156h-7.325l-0.15 0.156z"></path>
</symbol>

    </defs>
</svg>